<?xml version="1.0" standalone="yes"?>

<svg version="1.1" viewBox="0.0 0.0 960.0 540.0" fill="none" stroke="none" stroke-linecap="square" stroke-miterlimit="10" xmlns="http://www.w3.org/2000/svg" xmlns:xlink="http://www.w3.org/1999/xlink"><clipPath id="g35f391192_00.0"><path d="m0 0l960.0 0l0 540.0l-960.0 0l0 -540.0z" clip-rule="nonzero"></path></clipPath><g clip-path="url(#g35f391192_00.0)"><path fill="#041f30" d="m0 0l960.0 0l0 540.0l-960.0 0z" fill-rule="nonzero"></path><defs><linearGradient id="g35f391192_00.1" gradientUnits="userSpaceOnUse" gradientTransform="matrix(0.0 -15.35618767798501 15.35618767798501 0.0 0.0 0.0)" spreadMethod="pad" x1="-19.996299574670907" y1="47.16223418269681" x2="-19.99635432232317" y2="62.518421860584226"><stop offset="0.0" stop-color="#33cccc"></stop><stop offset="1.0" stop-color="#66ff33"></stop></linearGradient></defs><path fill="url(#g35f391192_00.1)" d="m724.2336 307.06693l235.81104 -193.12216l0 -194.09045l-235.81104 193.12216z" fill-rule="nonzero"></path><defs><linearGradient id="g35f391192_00.2" gradientUnits="userSpaceOnUse" gradientTransform="matrix(0.0 -15.11847525210152 15.11847525210152 0.0 0.0 0.0)" spreadMethod="pad" x1="-42.51772344019595" y1="0.0021706843469798116" x2="-42.517777692358294" y2="15.12064593635116"><stop offset="0.0" stop-color="#cc3399"></stop><stop offset="1.0" stop-color="#6699ff"></stop></linearGradient></defs><path fill="url(#g35f391192_00.2)" d="m0.0341757 642.80316l228.56693 -187.18948l0 -188.02313l-228.56693 187.18945z" fill-rule="nonzero"></path><defs><linearGradient id="g35f391192_00.3" gradientUnits="userSpaceOnUse" gradientTransform="matrix(0.0 11.852142499278058 -11.852142499278058 0.0 0.0 0.0)" spreadMethod="pad" x1="21.281305397381427" y1="-11.852192658069422" x2="21.281262145181785" y2="-5.0158870281375424E-5"><stop offset="0.0" stop-color="#ff0066"></stop><stop offset="1.0" stop-color="#ff9900"></stop></linearGradient></defs><path fill="url(#g35f391192_00.3)" d="m140.47304 252.22906l-140.47244 115.042725l0 115.41397l140.47244 -115.042725z" fill-rule="nonzero"></path><path fill="#0066ff" fill-opacity="0.2269" d="m187.5011 185.99457l-97.16536 79.5755l0 79.88907l97.16536 -79.57553z" fill-rule="nonzero"></path><defs><linearGradient id="g35f391192_00.4" gradientUnits="userSpaceOnUse" gradientTransform="matrix(0.0 9.106570512229046 -9.106570512229046 0.0 0.0 0.0)" spreadMethod="pad" x1="23.13710071477148" y1="-9.106013723826532" x2="23.137066939296975" y2="5.567883398783569E-4"><stop offset="0.0" stop-color="#33cccc"></stop><stop offset="1.0" stop-color="#66ff33"></stop></linearGradient></defs><path fill="url(#g35f391192_00.4)" d="m-0.0050704335 210.69965l82.92914 67.91647l0 68.27249l-82.92914 -67.91647z" fill-rule="nonzero"></path><path fill="#ffffff" fill-opacity="0.1423" d="m63.055298 288.06223l-63.05512 -51.64026l0 -51.85582l63.05512 51.64026z" fill-rule="nonzero"></path><defs><linearGradient id="g35f391192_00.5" gradientUnits="userSpaceOnUse" gradientTransform="matrix(0.0 -12.376035575364204 12.376035575364204 0.0 0.0 0.0)" spreadMethod="pad" x1="-27.11849538076336" y1="65.19683609079698" x2="-27.11854011574565" y2="77.57287166608035"><stop offset="0.0" stop-color="#cc3399"></stop><stop offset="1.0" stop-color="#6699ff"></stop></linearGradient></defs><path fill="url(#g35f391192_00.5)" d="m806.8793 335.61948l153.16534 -125.437836l0 -125.96375l-153.16534 125.43783z" fill-rule="nonzero"></path><defs><linearGradient id="g35f391192_00.6" gradientUnits="userSpaceOnUse" gradientTransform="matrix(0.0 -9.857277944665622 9.857277944665622 0.0 0.0 0.0)" spreadMethod="pad" x1="-42.24427394726283" y1="87.538541281615" x2="-42.244311391118046" y2="97.39581922620951"><stop offset="0.0" stop-color="#ff0066"></stop><stop offset="1.0" stop-color="#ff9900"></stop></linearGradient></defs><path fill="url(#g35f391192_00.6)" d="m960.0577 416.41354l-97.165344 -79.5755l0 -79.857574l97.165344 79.5755z" fill-rule="nonzero"></path><path fill="#ffffff" fill-opacity="0.1423" d="m854.89264 273.11548l-65.7323 53.832764l0 54.072723l65.7323 -53.832764z" fill-rule="nonzero"></path><path fill="#0066ff" fill-opacity="0.2269" d="m793.7979 29.593147l-97.22833 79.6271l0 79.96344l97.22833 -79.62709z" fill-rule="nonzero"></path></g></svg>

